<svg xmlns="http://www.w3.org/2000/svg" viewBox="0 0 104.32 175.7"><defs><style>.cls-1{fill:#f9b903;}.cls-1,.cls-2,.cls-3,.cls-4,.cls-5,.cls-6,.cls-7{stroke:#1d1e1c;stroke-linejoin:round;}.cls-2{fill:#6f2380;}.cls-3,.cls-7{stroke-linecap:round;}.cls-4{fill:#946a1d;}.cls-5{fill:#a38013;}.cls-6{fill:#2859a4;}.cls-7{fill:#1460a3;}</style></defs><title>girapix</title><g id="Camada_2" data-name="Camada 2"><g id="Camada_1-2" data-name="Camada 1"><polygon class="cls-1" points="15.29 124.09 15.29 141.13 7.88 145.37 7.88 119.81 15.29 124.09"/><polygon class="cls-1" points="81.68 85.72 103.82 72.94 103.82 47.37 81.68 60.16 81.68 85.72"/><polygon class="cls-2" points="81.68 60.15 81.68 85.72 59.54 72.94 59.54 175.2 51.75 170.7 52.16 145.37 15.29 124.09 7.88 119.81 7.88 145.37 0.53 141.13 0.5 115.55 0.5 89.98 30.02 107.03 30.02 30.32 81.68 60.15"/><polygon class="cls-1" points="81.68 85.72 81.68 162.42 74.3 166.68 74.27 141.13 66.92 145.37 67.06 162.34 66.92 170.94 59.54 175.2 59.54 72.94 81.68 85.72"/><polygon class="cls-1" points="30.02 107.03 0.5 89.98 22.64 77.2 30.01 81.46 30.02 107.03"/><polygon class="cls-1" points="103.82 47.37 52.16 17.55 30.02 30.32 52.16 43.11 81.68 60.16 103.82 47.37"/><polygon class="cls-2" points="74.3 166.68 67.06 162.5 66.92 145.37 74.27 141.13 74.3 166.68"/><polygon class="cls-3" points="89.06 64.42 89.06 68.68 92.75 66.55 92.75 62.28 89.06 64.42"/><polygon class="cls-3" points="96.44 60.16 96.44 64.42 100.13 62.29 100.13 58.02 96.44 60.16"/><polygon class="cls-3" points="44.78 47.37 52.16 51.63 52.16 60.15 44.78 55.89 44.78 47.37"/><polygon class="cls-4" points="52.16 26.07 52.16 9.02 59.54 4.76 59.54 21.8 52.16 26.07"/><polygon class="cls-3" points="52.16 26.07 44.78 21.8 44.78 4.76 52.16 9.02 52.16 26.07"/><polygon class="cls-4" points="44.78 4.76 52.16 0.5 59.54 4.76 52.16 9.02 44.78 4.76"/><polygon class="cls-4" points="37.4 34.59 37.4 17.54 44.78 13.28 44.78 30.33 37.4 34.59"/><polygon class="cls-3" points="37.4 34.59 30.02 30.33 30.02 13.28 37.4 17.54 37.4 34.59"/><polygon class="cls-4" points="37.4 9.02 44.78 13.28 37.4 17.54 30.02 13.28 37.4 9.02"/><polygon class="cls-4" points="30.02 30.33 44.79 38.85 22.64 51.63 22.64 34.59 30.02 30.33"/><polygon class="cls-5" points="75.4 101.76 81.84 98.04 81.84 90.6 75.4 94.32 75.4 101.76"/><polygon class="cls-5" points="63.3 116.63 69.86 112.84 69.86 120.28 63.3 124.07 63.3 116.63"/><polygon class="cls-5" points="22.64 85.72 15.26 89.98 22.64 94.24 30.02 89.98 22.64 85.72"/><polygon class="cls-5" points="59.54 38.85 52.16 43.11 59.54 47.37 66.92 43.11 59.54 38.85"/><polygon class="cls-5" points="52.16 26.07 59.55 30.32 66.92 26.07 59.54 21.8 52.16 26.07"/><polygon class="cls-5" points="75.4 56.35 81.84 52.63 88.29 56.35 81.84 60.07 75.4 56.35"/><polygon class="cls-6" points="52.04 94.14 52.04 102.83 59.54 107.03 59.54 98.5 52.04 94.14"/><polygon class="cls-6" points="44.79 115.54 37.39 111.28 37.39 119.81 44.78 124.07 44.79 115.54"/><polygon class="cls-6" points="30.02 64.42 37.39 68.67 37.4 77.2 30.02 72.94 30.02 64.42"/><polygon class="cls-6" points="22.64 119.81 22.64 128.33 15.29 124.09 15.29 115.53 22.64 119.81"/><polygon class="cls-6" points="37.4 94.24 37.4 102.76 30.02 98.5 30.02 89.98 37.4 94.24"/><polygon class="cls-6" points="52.16 145.37 52.16 136.85 59.51 141.13 59.51 149.62 52.16 145.37"/><polygon class="cls-7" points="15.26 107.03 15.26 98.5 7.88 94.24 7.88 102.76 15.26 107.03"/></g></g></svg>