<svg xmlns="http://www.w3.org/2000/svg" viewBox="0 0 512 512"><defs><style>.cls-1{fill:#265aa6;}</style></defs><title>design</title><g id="Camada_2" data-name="Camada 2"><g id="Camada_1-2" data-name="Camada 1"><path class="cls-1" d="M451,193.27A193.57,193.57,0,0,0,256.08,0h-1.33A194.09,194.09,0,0,0,117.13,56.83C80.29,93.4,60,141.85,60,193.27c0,77.35,44.41,119,76.83,149.45C159.26,363.77,173,377.46,173,393v59a60.06,60.06,0,0,0,60,60h45a60.07,60.07,0,0,0,60-60V387.91c2.26-11.53,12.16-22.89,28.66-38.58a20,20,0,0,0-27.57-29l-1.09,1v-74c0-14-4.58-28.73-13.25-42.53l-52.88-85.36a20,20,0,0,0-17-9.47h0a20,20,0,0,0-17,9.51l-52.62,85.35A79.88,79.88,0,0,0,173,247.36v74.51c-2.89-2.77-5.83-5.53-8.8-8.31C132.64,283.93,100,253.31,100,193.27a151.37,151.37,0,0,1,45.3-108A154.38,154.38,0,0,1,254.75,40h2.64A153.6,153.6,0,0,1,411,189.06a19.4,19.4,0,0,0-.45,4.21c0,23.13-4.65,43.23-14.21,61.43a20,20,0,1,0,35.42,18.6c12-22.82,18.12-47.51,18.74-75.35A20.05,20.05,0,0,0,451,193.27Zm-206.62-8.14H265.5l24,38.77h-69ZM298,263.9V384.69a66.8,66.8,0,0,0-.48,7.31H213V263.9ZM278,472H233a20,20,0,0,1-20-20V432h85v20A20,20,0,0,1,278,472ZM20,215.42a20,20,0,1,1,20-20A20,20,0,0,1,20,215.42Zm492-20a20,20,0,1,1-20-20A20,20,0,0,1,512,195.42ZM447,84a20,20,0,1,1,20,20A20,20,0,0,1,447,84ZM25,84a20,20,0,1,1,20,20A20,20,0,0,1,25,84ZM487,303a20,20,0,1,1-20-20A20,20,0,0,1,487,303ZM65,303a20,20,0,1,1-20-20A20,20,0,0,1,65,303Z"/></g></g></svg>