<svg xmlns="http://www.w3.org/2000/svg" viewBox="0 0 511 510.98"><defs><style>.cls-1{fill:#fbba00;}</style></defs><title>Ativo 1</title><g id="Camada_2" data-name="Camada 2"><g id="Camada_1-2" data-name="Camada 1"><path class="cls-1" d="M511,250.58c0-.12,0-.23,0-.35a20,20,0,0,0-19.21-20.51,307.93,307.93,0,0,0-80.13,9.55,167.62,167.62,0,0,0,15.52-70.6C427.16,75.66,351.5,0,258.49,0S89.83,75.66,89.83,168.67a167.7,167.7,0,0,0,16.38,72.46c-44.64-12.7-84.28-11.51-87-11.41A19.94,19.94,0,0,0,0,250.12c-.29,12.61-.55,111.93,58.7,171.18C82.43,445,108.36,457,135.8,457c.38,0,33-.19,57.33-14.46,32.48,35.63,44.5,57.38,44.76,57.87A20,20,0,0,0,255.52,511h1a20,20,0,0,0,17.67-10.63c.32-.61,33.24-61.5,144.43-149.2a20,20,0,0,0-24.72-31.35c-26.67,21-49.12,40.7-67.93,58.57a59.57,59.57,0,0,1-1.57-13.05c-.07-10.85,2.27-27.7,23.27-48.7,35.46-35.47,92.72-44.26,122.78-46.38-2.12,30.06-10.9,87.35-46.38,122.83-8.63,8.63-17.4,15-26.09,18.94a20,20,0,1,0,16.51,36.35c13.06-5.93,25.78-15,37.81-27.06C510.83,362.72,511.24,265,511,250.58ZM256,455.75a528.25,528.25,0,0,0-39.15-46.45c5.1-10.82,10.59-25.84,10.7-43.72a90.29,90.29,0,0,0-5.77-32.29,169,169,0,0,0,67.7,1.18,94.46,94.46,0,0,0-5,31.11c.12,18.18,5.33,33.29,10.26,44.2A527.14,527.14,0,0,0,256,455.75Zm.5-278.06a25.95,25.95,0,1,1,25.95-25.95A26,26,0,0,1,256.5,177.69Zm0,40.31a63.51,63.51,0,0,1,63.44,63.44c0,.11,0,.22,0,.33a128.53,128.53,0,0,1-126.86-2.25A63.51,63.51,0,0,1,256.5,218Zm2-178.08a128.69,128.69,0,0,1,97.35,212.92,103.85,103.85,0,0,0-47.36-60.71,65.87,65.87,0,1,0-104,0,103.88,103.88,0,0,0-46.28,57.21,128.13,128.13,0,0,1-28.49-80.67C129.75,97.68,187.5,39.92,258.49,39.92ZM87,393.07C51.49,357.59,42.7,300.29,40.58,270.24c30.08,2.12,87.33,10.92,122.79,46.38,16.2,16.2,24.37,32.59,24.27,48.7a53.7,53.7,0,0,1-1.73,12.9c-18.78-17.83-41.18-37.44-67.77-58.42a20,20,0,1,0-24.72,31.35,914.87,914.87,0,0,1,70.2,61.06,99.9,99.9,0,0,1-27.82,4.87C119.1,417.08,103.12,409.23,87,393.07Z"/></g></g></svg>